<svg width="12" height="5" viewBox="0 0 12 5" fill="none" xmlns="http://www.w3.org/2000/svg">
<path d="M7.6875 2.5C7.6875 3.4375 6.91406 4.1875 6 4.1875C5.0625 4.1875 4.3125 3.4375 4.3125 2.5C4.3125 1.58594 5.0625 0.8125 6 0.8125C6.91406 0.8125 7.6875 1.58594 7.6875 2.5ZM10.125 0.8125C11.0391 0.8125 11.8125 1.58594 11.8125 2.5C11.8125 3.4375 11.0391 4.1875 10.125 4.1875C9.1875 4.1875 8.4375 3.4375 8.4375 2.5C8.4375 1.58594 9.1875 0.8125 10.125 0.8125ZM1.875 0.8125C2.78906 0.8125 3.5625 1.58594 3.5625 2.5C3.5625 3.4375 2.78906 4.1875 1.875 4.1875C0.9375 4.1875 0.1875 3.4375 0.1875 2.5C0.1875 1.58594 0.9375 0.8125 1.875 0.8125Z" fill="#7C859D"/>
</svg>
